<svg viewBox="0 0 24 24" fill="none" xmlns="http://www.w3.org/2000/svg">
<path fill-rule="evenodd" clip-rule="evenodd" d="M20.8769 4.57712L13.8338 0.473693C12.7512 -0.157247 11.0546 -0.157247 9.97195 0.473693L2.92892 4.57683C1.84711 5.20748 1 6.68391 1 7.93856V16.0647C1 17.3202 1.85144 18.7915 2.93873 19.4149L9.96705 23.4423C10.5097 23.7534 11.2063 23.909 11.9029 23.909C12.5995 23.909 13.2961 23.7528 13.8387 23.4423L20.8671 19.4143C21.9543 18.7912 22.8058 17.3197 22.8058 16.0642V7.93827C22.8058 6.68333 21.9584 5.20748 20.8769 4.57712ZM16.9758 8.17666L17.8242 9.03001C18.0586 9.26579 18.0586 9.64782 17.8242 9.8836L10.9242 16.8232C10.6901 17.0589 10.3102 17.0589 10.0758 16.8232L6.17578 12.9007C5.94141 12.6651 5.94141 12.2829 6.17578 12.0473L7.02422 11.194C7.25836 10.9582 7.63828 10.9582 7.87266 11.194L10.5 13.8363L16.1273 8.17666C16.3615 7.94111 16.7414 7.94111 16.9758 8.17666Z" fill="currentColor"/>
</svg>
