<svg viewBox="0 0 24 24" fill="none" xmlns="http://www.w3.org/2000/svg">
<path fill-rule="evenodd" clip-rule="evenodd" d="M6 2H19C20.1046 2 21 2.89543 21 4V22H19V18C19 17.4477 18.5523 17 18 17H17C16.4477 17 16 17.4477 16 18V22H4L4 4C4 2.89543 4.89543 2 6 2ZM16 24H4C2.89543 24 2 23.1046 2 22V4C2 1.79086 3.79086 0 6 0H19C21.2091 0 23 1.79086 23 4V22C23 23.1046 22.1046 24 21 24H19H16ZM6 6C6 5.44772 6.44772 5 7 5H13C13.5523 5 14 5.44772 14 6V7C14 7.55228 13.5523 8 13 8H7C6.44772 8 6 7.55228 6 7V6ZM7 11C6.44772 11 6 11.4477 6 12V13C6 13.5523 6.44772 14 7 14H13C13.5523 14 14 13.5523 14 13V12C14 11.4477 13.5523 11 13 11H7ZM16 12C16 11.4477 16.4477 11 17 11H18C18.5523 11 19 11.4477 19 12V13C19 13.5523 18.5523 14 18 14H17C16.4477 14 16 13.5523 16 13V12ZM17 5C16.4477 5 16 5.44772 16 6V7C16 7.55228 16.4477 8 17 8H18C18.5523 8 19 7.55228 19 7V6C19 5.44772 18.5523 5 18 5H17ZM6 18C6 17.4477 6.44772 17 7 17H8C8.55228 17 9 17.4477 9 18V19C9 19.5523 8.55228 20 8 20H7C6.44772 20 6 19.5523 6 19V18ZM12 17C11.4477 17 11 17.4477 11 18V19C11 19.5523 11.4477 20 12 20H13C13.5523 20 14 19.5523 14 19V18C14 17.4477 13.5523 17 13 17H12Z" fill="currentColor"/>
</svg>
