<svg viewBox="0 0 72 72" fill="none" xmlns="http://www.w3.org/2000/svg">
<path d="M51.6774 47.9851C51.5459 48.0399 51.4144 48.0727 51.283 48.1056C51.1844 48.1385 51.0858 48.1713 50.9762 48.1933C50.7462 48.2371 50.5052 48.248 50.2751 48.2371L46.8352 48.0728C46.408 48.0399 46.0026 48.2919 45.8054 48.6753L44.2279 51.7318C44.0197 52.1481 43.713 52.4986 43.3624 52.7835C43.0119 53.0683 42.5956 53.2764 42.1464 53.3969C41.993 53.4408 41.8287 53.4517 41.6753 53.4736C41.6096 53.4846 41.5329 53.5065 41.4672 53.5065C40.788 53.5394 40.0978 53.3641 39.5172 52.9916L39.4624 52.9587L44.8304 62.2925L48.2703 57.0779C48.6428 56.5082 49.2782 56.1357 49.9684 56.1029L56.2128 55.7304L51.7431 47.9851C51.7212 47.9851 51.6993 47.9851 51.6774 47.9851Z" fill="white"/>
<path d="M31.9581 53.2764C31.9033 53.2984 31.8595 53.3203 31.8047 53.3312C31.6404 53.386 31.4761 53.4298 31.3008 53.4627C31.2679 53.4736 31.2351 53.4736 31.2132 53.4846C31.0488 53.5065 30.8845 53.5175 30.7311 53.5175C30.7092 53.5175 30.6873 53.5065 30.6654 53.5065C30.4025 53.4956 30.1395 53.4736 29.8876 53.4079C29.4822 53.2984 29.1207 53.1121 28.7811 52.8602C28.3758 52.5644 28.0362 52.1809 27.8061 51.7318L26.2176 48.6753C26.0204 48.2919 25.6041 48.0509 25.1769 48.0728L21.737 48.2371C21.496 48.248 21.2549 48.2261 21.0139 48.1823C20.9372 48.1714 20.8606 48.1385 20.7729 48.1166C20.6086 48.0947 20.4552 48.0509 20.3018 47.9851C20.2909 47.9742 20.269 47.9742 20.258 47.9742L15.7883 55.7194L22.0328 56.0919C22.7229 56.1357 23.3583 56.4973 23.7308 57.0779L27.1707 62.2925L32.5497 52.9697L32.4949 53.0026C32.3306 53.1121 32.1443 53.1998 31.9581 53.2764Z" fill="white"/>
<path d="M41.3245 29.1533L38.991 28.8136C38.2132 28.7041 37.5559 28.2221 37.2054 27.5209L36.1646 25.4066C36.1537 25.3847 36.1208 25.308 36.0003 25.308C35.8798 25.308 35.8579 25.3847 35.836 25.4066L34.7952 27.5209C34.4556 28.2221 33.7874 28.7041 33.0095 28.8136L30.6761 29.1533C30.6432 29.1533 30.5666 29.1642 30.5337 29.2738C30.5008 29.3833 30.5556 29.4381 30.5775 29.46L32.2646 31.1033C32.8233 31.651 33.0753 32.4288 32.9438 33.1957L32.5494 35.5182C32.5494 35.5511 32.5275 35.6277 32.6261 35.6935C32.7138 35.7592 32.7904 35.7154 32.8124 35.7044L34.9048 34.6089C35.595 34.2474 36.4166 34.2474 37.1177 34.6089L39.2101 35.7044C39.2321 35.7154 39.3087 35.7482 39.3964 35.6935C39.484 35.6277 39.4731 35.5511 39.4731 35.5182L39.0787 33.1957C38.9472 32.4288 39.1992 31.6401 39.7579 31.1033L41.445 29.46C41.4669 29.4381 41.5217 29.3833 41.4888 29.2738C41.434 29.1752 41.3464 29.1642 41.3245 29.1533Z" fill="#16A7A7"/>
<path d="M36.0006 17.3765C28.7484 17.3765 22.8545 23.2703 22.8545 30.5226C22.8545 37.7749 28.7484 43.6688 36.0006 43.6688C43.2529 43.6688 49.1468 37.7749 49.1468 30.5226C49.1468 23.2703 43.2529 17.3765 36.0006 17.3765ZM42.9462 31.0266L41.2591 32.6698C41.2153 32.7137 41.1934 32.7684 41.2043 32.8232L41.5987 35.1457C41.7521 36.044 41.3906 36.9314 40.6566 37.4682C39.9226 38.005 38.9695 38.0707 38.1588 37.6435L36.0664 36.548C36.0116 36.5151 35.9459 36.5151 35.9021 36.548L33.8096 37.6435C33.4591 37.8297 33.0866 37.9174 32.7032 37.9174C32.2102 37.9174 31.7281 37.764 31.3119 37.4572C30.5779 36.9204 30.2163 36.0331 30.3697 35.1348L30.7641 32.8123C30.775 32.7575 30.7531 32.6918 30.7093 32.6589L29.0222 31.0156C28.3759 30.3802 28.1458 29.449 28.4197 28.5945C28.7045 27.7291 29.4385 27.1156 30.3368 26.9841L32.6703 26.6445C32.7251 26.6336 32.7798 26.6007 32.8017 26.5459L33.8425 24.4316C34.2478 23.6209 35.0585 23.106 35.9678 23.106C36.8771 23.106 37.6877 23.61 38.0931 24.4316L39.1338 26.5459C39.1557 26.6007 39.2105 26.6336 39.2653 26.6445L41.5987 26.9841C42.497 27.1156 43.231 27.7291 43.5159 28.5945C43.8336 29.46 43.6035 30.3912 42.9462 31.0266Z" fill="white"/>
<path d="M54.7776 32.3083C54.0874 31.2238 54.0874 29.8325 54.7776 28.7479L56.64 25.8448C56.8153 25.5819 56.8591 25.2642 56.7714 24.9574C56.6947 24.6507 56.4866 24.4097 56.2127 24.2563L53.1562 22.6678C52.0169 22.0762 51.3158 20.8712 51.3706 19.5894L51.5349 16.1495C51.5458 15.8318 51.4363 15.536 51.2062 15.3169C50.9871 15.0978 50.7023 14.9664 50.3736 14.9883L46.9337 15.1526C45.6301 15.2074 44.436 14.5172 43.8444 13.3669L42.2668 10.3104C42.1244 10.0256 41.8725 9.82841 41.5657 9.75172C41.259 9.66408 40.9522 9.7079 40.6783 9.88318L37.7752 11.7456C36.6907 12.4357 35.2994 12.4357 34.2148 11.7456L31.3117 9.88318C31.0488 9.7079 30.742 9.66408 30.4353 9.74077C30.1286 9.82841 29.8875 10.0256 29.7342 10.2995L28.1566 13.356C27.5651 14.4953 26.349 15.1964 25.0782 15.1416L21.6274 14.9883C21.3097 14.9664 21.0139 15.0869 20.7948 15.3169C20.5757 15.536 20.4552 15.8318 20.4661 16.1495L20.6305 19.5894C20.6852 20.8712 19.9951 22.0872 18.8448 22.6788L15.7883 24.2673C15.5035 24.4097 15.3063 24.6617 15.2296 24.9684C15.1419 25.2642 15.1858 25.5709 15.361 25.8448L17.2234 28.7479C17.9136 29.8325 17.9136 31.2238 17.2234 32.3083L15.361 35.2114C15.1858 35.4744 15.1419 35.7811 15.2186 36.0879C15.3063 36.3946 15.5035 36.6356 15.7773 36.789L18.8338 38.3665C19.9732 38.9581 20.6743 40.1632 20.6195 41.4559L20.4552 44.8958C20.4442 45.1916 20.5538 45.4654 20.751 45.6845C20.7729 45.7065 20.8057 45.7393 20.8386 45.7722C20.9262 45.8489 21.0139 45.9036 21.1125 45.9584C21.1454 45.9803 21.1782 45.9913 21.222 46.0022C21.3425 46.0461 21.474 46.068 21.6274 46.068L25.0673 45.9036C25.1221 45.9036 25.1659 45.9036 25.2207 45.9036C25.3083 45.9036 25.385 45.9146 25.4617 45.9256C25.5055 45.9256 25.5384 45.9256 25.5822 45.9365C25.7136 45.9475 25.8341 45.9694 25.9656 46.0022C25.9875 46.0132 26.0094 46.0132 26.0423 46.0132C26.1628 46.0461 26.2833 46.0789 26.3929 46.1228C26.4257 46.1337 26.4586 46.1447 26.4915 46.1556C26.5901 46.1994 26.6886 46.2433 26.7763 46.298C26.8201 46.3199 26.8639 46.3419 26.9078 46.3638C26.9844 46.4076 27.0502 46.4624 27.1159 46.5062C27.1707 46.55 27.2364 46.5829 27.2912 46.6267C27.346 46.6705 27.4007 46.7253 27.4446 46.7691C27.4993 46.8239 27.5651 46.8787 27.6198 46.9334C27.6746 46.9882 27.7184 47.0539 27.7732 47.1087C27.817 47.1635 27.8718 47.2183 27.9156 47.284C28.0033 47.4045 28.0909 47.5469 28.1566 47.6784L29.7451 50.7349C29.8875 51.0197 30.1395 51.2169 30.4463 51.2936C30.5668 51.3264 30.6873 51.3264 30.8078 51.3155C30.994 51.3045 31.1693 51.2607 31.3227 51.1621L34.2258 49.2997C35.3103 48.6096 36.7016 48.6096 37.7752 49.2888C37.7752 49.2888 37.7862 49.2888 37.7862 49.2997L40.6893 51.1621C40.8427 51.2607 41.0289 51.3045 41.2042 51.3155C41.3247 51.3264 41.4452 51.3264 41.5657 51.2936C41.8725 51.2169 42.1135 51.0087 42.2668 50.7349L43.8553 47.6784C44.4469 46.539 45.6629 45.8489 46.9337 45.8927L50.3736 46.057C50.5051 46.057 50.6475 46.0351 50.768 45.9913C50.8009 45.9803 50.8338 45.9694 50.8666 45.9584C50.9652 45.9146 51.0638 45.8489 51.1515 45.7722C51.1843 45.7393 51.2172 45.7065 51.2391 45.6845C51.4363 45.4654 51.5458 45.1916 51.5349 44.8958L51.3706 41.4559C51.3158 40.1741 52.006 38.9581 53.1562 38.3665L56.2127 36.789C56.4976 36.6466 56.6947 36.3946 56.7714 36.0879C56.8481 35.7811 56.8043 35.4744 56.629 35.2005L54.7776 32.3083ZM36.0005 45.8598C27.5431 45.8598 20.6633 38.98 20.6633 30.5226C20.6633 22.0653 27.5431 15.1855 36.0005 15.1855C44.4579 15.1855 51.3377 22.0653 51.3377 30.5226C51.3377 38.98 44.4579 45.8598 36.0005 45.8598Z" fill="white"/>
<path d="M56.6181 31.1252C56.388 30.7637 56.388 30.2926 56.6181 29.9311L58.4804 27.028C58.9844 26.2501 59.1268 25.2861 58.8858 24.3987C58.6448 23.5114 58.0313 22.7445 57.2097 22.3173L54.1532 20.7288C53.7697 20.5316 53.5397 20.1262 53.5506 19.699L53.715 16.2591C53.7697 15.3279 53.4192 14.4186 52.7619 13.7613C52.1046 13.104 51.2172 12.7644 50.2751 12.7972L46.8351 12.9616C46.4079 12.9944 45.9916 12.7425 45.7944 12.359L44.2059 9.30256C43.7787 8.48093 43.0228 7.86744 42.1244 7.62643C41.2261 7.38541 40.273 7.53878 39.4952 8.03177L36.5921 9.89414C36.2306 10.1242 35.7595 10.1242 35.398 9.89414L32.4949 8.03177C31.7171 7.52783 30.753 7.38541 29.8656 7.62643C28.9673 7.86744 28.2114 8.48093 27.7842 9.30256L26.2066 12.359C26.0094 12.7425 25.5931 12.9944 25.1659 12.9616L21.726 12.7972C20.8058 12.7644 19.8965 13.104 19.2392 13.7613C18.5819 14.4186 18.2313 15.3279 18.2751 16.2481L18.4394 19.688C18.4614 20.1153 18.2203 20.5206 17.8369 20.7288L14.7804 22.3063C13.9588 22.7335 13.3453 23.4895 13.1043 24.3878C12.8633 25.2861 13.0167 26.2392 13.5096 27.017L15.372 29.9201C15.6021 30.2816 15.6021 30.7527 15.372 31.1142L13.5096 34.0173C13.0057 34.7951 12.8633 35.7592 13.1043 36.6466C13.3453 37.5449 13.9588 38.3008 14.7804 38.728L17.8369 40.3056C18.2203 40.5028 18.4504 40.9081 18.4394 41.3463L18.2751 44.7862C18.2532 45.3449 18.3847 45.9036 18.6366 46.3966L13.8931 54.6239C13.5096 55.2812 13.4987 56.081 13.8602 56.7602C14.2217 57.4284 14.89 57.8666 15.6568 57.9105L21.9013 58.2829L25.3521 63.4976C25.7575 64.122 26.4367 64.4835 27.1816 64.4835C27.2036 64.4835 27.2255 64.4835 27.2474 64.4835C28.0142 64.4616 28.6934 64.0453 29.0769 63.388L36.0005 51.3812L42.9242 63.388C43.3076 64.0453 43.9868 64.4616 44.7537 64.4835C44.7756 64.4835 44.7975 64.4835 44.8194 64.4835C45.5534 64.4835 46.2326 64.122 46.6489 63.4976L50.0888 58.2829L56.3332 57.9105C57.1001 57.8666 57.7684 57.4394 58.1299 56.7602C58.4914 56.0919 58.4804 55.2922 58.097 54.6239L53.3534 46.4076C53.6054 45.9146 53.7369 45.3559 53.715 44.7972L53.5506 41.3573C53.5287 40.93 53.7697 40.5137 54.1532 40.3165L57.2097 38.728C58.0313 38.3008 58.6448 37.5449 58.8858 36.6466C59.1268 35.7482 58.9734 34.7951 58.4804 34.0173L56.6181 31.1252ZM27.1707 62.2925L23.7308 57.0779C23.3583 56.5082 22.7229 56.1357 22.0327 56.0919L15.7883 55.7194L20.258 47.9742C20.269 47.9851 20.2909 47.9851 20.3018 47.9851C20.4552 48.0508 20.6086 48.0947 20.7729 48.1275C20.8496 48.1494 20.9263 48.1823 21.0139 48.1933C21.244 48.2371 21.485 48.248 21.7369 48.248L25.1769 48.0837C25.6041 48.0508 26.0094 48.3028 26.2176 48.6863L27.8061 51.7427C28.0361 52.1919 28.3757 52.5753 28.7811 52.8711C29.1097 53.1121 29.4822 53.3093 29.8876 53.4189C30.1505 53.4846 30.4024 53.5175 30.6654 53.5175C30.6873 53.5175 30.7092 53.5284 30.7311 53.5284C30.8954 53.5284 31.0598 53.5175 31.2131 53.4956C31.246 53.4956 31.2789 53.4846 31.3008 53.4736C31.476 53.4408 31.6404 53.397 31.8047 53.3422C31.8595 53.3203 31.9143 53.3093 31.9581 53.2874C32.1443 53.2107 32.3305 53.1231 32.5058 53.0135L32.5606 52.9807L27.1707 62.2925ZM56.2127 55.7194L49.9683 56.0919C49.2781 56.1357 48.6427 56.4973 48.2703 57.0669L44.8304 62.2925L39.4514 52.9697L39.5062 53.0026C40.0868 53.375 40.777 53.5503 41.4562 53.5175C41.5219 53.5175 41.5986 53.4955 41.6643 53.4846C41.8177 53.4627 41.982 53.4517 42.1354 53.4079C42.5846 53.2874 43.0008 53.0793 43.3514 52.7944C43.702 52.5096 43.9978 52.1481 44.2169 51.7427L45.7944 48.6863C45.9916 48.3028 46.3969 48.0508 46.8242 48.0837L50.2641 48.248C50.5051 48.259 50.7352 48.2371 50.9652 48.2042C51.0748 48.1823 51.1624 48.1494 51.272 48.1166C51.4034 48.0837 51.5349 48.0509 51.6664 47.9961C51.6883 47.9851 51.7102 47.9851 51.7211 47.9742L56.2127 55.7194ZM56.7824 36.0878C56.6948 36.3946 56.4976 36.6356 56.2237 36.789L53.1672 38.3665C52.0279 38.9581 51.3267 40.1632 51.3815 41.4559L51.5458 44.8958C51.5568 45.1916 51.4473 45.4654 51.2501 45.6845C51.2281 45.7065 51.1953 45.7393 51.1624 45.7722C51.0748 45.8489 50.9762 45.9146 50.8776 45.9584C50.8447 45.9694 50.8119 45.9803 50.779 45.9913C50.6475 46.0351 50.5161 46.057 50.3846 46.057L46.9447 45.8927C45.6739 45.8489 44.4469 46.5281 43.8663 47.6784L42.2778 50.7349C42.1354 51.0197 41.8834 51.2169 41.5767 51.2936C41.4562 51.3264 41.3357 51.3264 41.2152 51.3155C41.0289 51.3045 40.8536 51.2607 40.7003 51.1621L37.7972 49.2997C37.7972 49.2997 37.7862 49.2997 37.7862 49.2888C36.7126 48.5986 35.3213 48.6096 34.2367 49.2997L31.3336 51.1621C31.1803 51.2607 30.994 51.3045 30.8187 51.3155C30.6982 51.3264 30.5777 51.3264 30.4572 51.2936C30.1505 51.2169 29.9095 51.0087 29.7561 50.7349L28.1676 47.6784C28.0909 47.536 28.0142 47.4045 27.9266 47.284C27.8828 47.2183 27.828 47.1635 27.7842 47.1087C27.7404 47.0539 27.6856 46.9882 27.6308 46.9334C27.576 46.8787 27.5103 46.8239 27.4555 46.7691C27.4007 46.7253 27.3569 46.6705 27.3021 46.6267C27.2474 46.5829 27.1926 46.55 27.1269 46.5062C27.0611 46.4624 26.9844 46.4076 26.9187 46.3638C26.8749 46.3419 26.8311 46.3199 26.7873 46.298C26.6887 46.2433 26.601 46.1994 26.5024 46.1556C26.4696 46.1447 26.4367 46.1337 26.4038 46.1227C26.2833 46.0789 26.1738 46.0351 26.0533 46.0132C26.0314 46.0022 26.0094 46.0022 25.9766 46.0022C25.8561 45.9694 25.7246 45.9475 25.5931 45.9365C25.5603 45.9365 25.5165 45.9365 25.4726 45.9256C25.396 45.9146 25.3083 45.9036 25.2316 45.9036C25.1769 45.9036 25.133 45.9036 25.0783 45.9036L21.6383 46.068C21.4959 46.0789 21.3645 46.0461 21.233 46.0022C21.2001 45.9913 21.1563 45.9803 21.1235 45.9584C21.0249 45.9146 20.9372 45.8489 20.8496 45.7722C20.8167 45.7393 20.7838 45.7174 20.7619 45.6845C20.5647 45.4654 20.4552 45.1916 20.4661 44.8958L20.6305 41.4559C20.6852 40.1741 19.9951 38.9581 18.8448 38.3665L15.7883 36.789C15.5035 36.6466 15.3063 36.3946 15.2296 36.0878C15.142 35.7811 15.1858 35.4744 15.3611 35.2005L17.2234 32.2974C17.9136 31.2128 17.9136 29.8215 17.2234 28.737L15.3611 25.8338C15.1858 25.5709 15.142 25.2642 15.2186 24.9574C15.2953 24.6507 15.5035 24.4097 15.7774 24.2563L18.8338 22.6678C19.9732 22.0762 20.6743 20.8712 20.6195 19.5785L20.4661 16.1495C20.4552 15.8318 20.5647 15.536 20.7948 15.3169C21.0139 15.0978 21.3097 14.9664 21.6274 14.9883L25.0673 15.1526C26.3491 15.2074 27.5651 14.5172 28.1457 13.3669L29.7232 10.3104C29.8656 10.0256 30.1176 9.82841 30.4244 9.75172C30.7421 9.66408 31.0488 9.7079 31.3227 9.88318L34.2258 11.7456C35.3103 12.4357 36.7016 12.4357 37.7862 11.7456L40.6893 9.88318C40.9522 9.7079 41.2699 9.66408 41.5767 9.74077C41.8834 9.82841 42.1244 10.0256 42.2778 10.2995L43.8553 13.356C44.4469 14.4953 45.641 15.1964 46.9447 15.1416L50.3846 14.9773C50.7133 14.9554 50.9981 15.0759 51.2172 15.306C51.4363 15.5251 51.5568 15.8209 51.5458 16.1386L51.3815 19.5785C51.3267 20.8602 52.0169 22.0762 53.1672 22.6569L56.2237 24.2454C56.5085 24.3878 56.7057 24.6397 56.7824 24.9465C56.87 25.2532 56.8153 25.56 56.6509 25.8338L54.7886 28.737C54.0984 29.8215 54.0984 31.2128 54.7886 32.2974L56.6509 35.2005C56.8043 35.4744 56.8591 35.7811 56.7824 36.0878Z" fill="#481D72"/>
<path d="M36.0005 15.1855C27.5432 15.1855 20.6633 22.0653 20.6633 30.5226C20.6633 38.98 27.5432 45.8598 36.0005 45.8598C44.4579 45.8598 51.3377 38.98 51.3377 30.5226C51.3377 22.0653 44.4579 15.1855 36.0005 15.1855ZM36.0005 43.6688C28.7482 43.6688 22.8544 37.7749 22.8544 30.5226C22.8544 23.2703 28.7482 17.3765 36.0005 17.3765C43.2528 17.3765 49.1467 23.2703 49.1467 30.5226C49.1467 37.7749 43.2528 43.6688 36.0005 43.6688Z" fill="#481D72"/>
<path d="M41.6424 26.9841L39.3089 26.6445C39.2542 26.6336 39.1994 26.6007 39.1775 26.5459L38.1367 24.4316C37.7314 23.6209 36.9207 23.106 36.0114 23.106C35.1022 23.106 34.2915 23.61 33.8861 24.4316L32.8454 26.5459C32.8235 26.6007 32.7687 26.6336 32.714 26.6445L30.3805 26.9841C29.4822 27.1156 28.7482 27.7291 28.4634 28.5945C28.1785 29.46 28.4086 30.3912 29.0659 31.0156L30.753 32.6589C30.7968 32.7027 30.8187 32.7575 30.8078 32.8123L30.4134 35.1348C30.26 36.0331 30.6215 36.9204 31.3555 37.4572C31.7718 37.764 32.2538 37.9174 32.7468 37.9174C33.1193 37.9174 33.5027 37.8297 33.8533 37.6435L35.9457 36.548C35.9895 36.5151 36.0553 36.5151 36.11 36.548L38.2025 37.6435C39.0022 38.0707 39.9662 37.994 40.7002 37.4682C41.4342 36.9314 41.7958 36.044 41.6424 35.1457L41.248 32.8232C41.237 32.7684 41.259 32.7027 41.3028 32.6699L42.9899 31.0266C43.6362 30.3912 43.8663 29.46 43.5924 28.5945C43.2747 27.74 42.5407 27.1156 41.6424 26.9841ZM41.4233 29.46L39.7362 31.1033C39.1775 31.651 38.9255 32.4288 39.057 33.1957L39.4514 35.5182C39.4514 35.5511 39.4733 35.6277 39.3747 35.6935C39.287 35.7592 39.2103 35.7154 39.1884 35.7044L37.096 34.6089C36.4058 34.2474 35.5842 34.2474 34.8831 34.6089L32.7906 35.7044C32.7687 35.7154 32.692 35.7482 32.6044 35.6935C32.5168 35.6277 32.5277 35.5511 32.5277 35.5182L32.9221 33.1957C33.0536 32.4288 32.8016 31.6401 32.2429 31.1033L30.5558 29.46C30.5339 29.4381 30.4791 29.3833 30.512 29.2738C30.5448 29.1642 30.6325 29.1533 30.6544 29.1533L32.9878 28.8136C33.7656 28.7041 34.4229 28.2221 34.7735 27.5209L35.8143 25.4066C35.8252 25.3847 35.8581 25.308 35.9786 25.308C36.0991 25.308 36.121 25.3847 36.1429 25.4066L37.1836 27.5209C37.5233 28.2221 38.1915 28.7041 38.9693 28.8136L41.3028 29.1533C41.3247 29.1533 41.4123 29.1642 41.4452 29.2738C41.5 29.3833 41.4452 29.4381 41.4233 29.46Z" fill="#481D72"/>
</svg>
