<svg viewBox="0 0 72 72" fill="none" xmlns="http://www.w3.org/2000/svg">
<path d="M37.94 39.16C39.57 39.15 40.4901 38.81 40.7001 38.6C41.0201 38.28 42.68 36.46 43.51 32.61C43.51 32.6 43.52 32.58 43.53 32.57C43.53 32.56 43.53 32.54 43.53 32.53C43.53 32.52 43.71 31.92 43.89 30.91C43.92 30.61 43.92 30.42 43.91 30.33C43.81 30.32 43.67 30.31 43.55 30.3C42.86 30.26 41.76 30.19 40.59 29.25C39.58 29.62 37.34 30.29 35.07 29.96C34.42 29.86 33.6001 29.52 32.9401 29.23C32.5701 30.02 32.3 30.5 32.05 30.81C32.22 31.88 32.43 32.5 32.43 32.51C32.44 32.53 32.4301 32.55 32.4401 32.57C32.4501 32.59 32.46 32.6 32.46 32.62C33.29 36.47 34.9501 38.29 35.2701 38.61C35.4901 38.81 36.4 39.15 37.94 39.16Z" fill="white"/>
<path d="M22.16 23.64C20.76 24.85 18.04 26.82 14.23 26.35C14.56 29.63 16.33 32.64 19.4 32.64C20.97 32.64 22.08 32.01 23 30.59C23.46 29.87 24.02 28.21 24.31 26.7C23.31 26.07 22.6 24.73 22.16 23.64Z" fill="white"/>
<path d="M33.6001 27.54C34.1101 27.76 34.8901 28.1 35.3301 28.16C37.8101 28.53 40.3801 27.38 40.4001 27.37C40.7401 27.21 41.1401 27.29 41.4101 27.55C42.2601 28.39 42.9701 28.44 43.6601 28.48C43.8201 28.49 44.0001 28.51 44.1701 28.53C44.1801 28.37 44.1901 28.23 44.2001 28.06L44.2201 27.71C44.3601 24.83 44.3301 23.41 42.2101 22.49C42.1101 22.45 42.0201 22.39 41.9401 22.31C40.1801 20.62 37.7701 20.13 35.6501 21.05C33.3101 22.05 31.9101 24.43 31.8301 27.44C31.9801 27.28 32.1801 27.18 32.4001 27.16C32.7201 27.16 32.9701 27.27 33.6001 27.54Z" fill="white"/>
<path d="M54.3699 32.72C55.8399 32.72 57.3199 32.44 57.6199 32.21C58.4099 31.42 59.5399 29.98 60.1499 26.85C60.1599 26.14 59.2599 23.85 58.6599 22.92C57.7399 23.54 55.8899 24.42 53.1899 24.02C52.0399 23.85 51.1399 23.49 50.4999 22.95C50.4799 22.94 50.4699 22.93 50.4499 22.92C50.2299 23.86 50.1099 25.77 50.1599 26.82C50.7599 29.97 51.8999 31.41 52.7099 32.22C52.9999 32.52 53.2799 32.72 54.3699 32.72Z" fill="white"/>
<path d="M12.5201 34.93C13.5601 34.25 14.5701 33.76 15.1401 33.51C15.1701 33.01 15.0901 32.76 15.0901 32.76C15.0801 32.73 15.0801 32.69 15.0701 32.65C13.3001 30.89 12.3701 28.07 12.3601 25.27C12.3601 25.21 12.3801 25.16 12.3901 25.1C12.3901 25.08 12.3901 25.07 12.3901 25.05C12.3901 25.04 12.4001 25.03 12.4001 25.02C12.4301 24.93 12.4701 24.84 12.5201 24.77C12.5301 24.75 12.5501 24.73 12.5601 24.71C12.6101 24.64 12.6801 24.59 12.7501 24.54C12.7801 24.52 12.8001 24.5 12.8301 24.48C12.8901 24.45 12.9601 24.43 13.0301 24.41C13.0801 24.4 13.1301 24.38 13.1801 24.38C13.2001 24.38 13.2201 24.37 13.2501 24.37C13.2901 24.37 13.3201 24.39 13.3601 24.39C13.4001 24.39 13.4401 24.39 13.4801 24.39C17.5401 25.39 20.1901 23 21.4601 21.85C21.7201 21.62 21.9201 21.44 22.0601 21.35C22.3001 21.19 22.6001 21.15 22.8701 21.24C23.1401 21.34 23.3501 21.56 23.4301 21.83C23.9301 23.53 24.8901 25.19 25.4001 25.25C25.4101 25.25 25.4101 25.26 25.4201 25.26C25.4301 25.26 25.4301 25.26 25.4401 25.26C25.4901 25.27 25.5401 25.3 25.5901 25.31C25.6501 25.33 25.7101 25.34 25.7601 25.37C25.8101 25.4 25.8501 25.44 25.8901 25.48C25.9301 25.52 25.9801 25.55 26.0201 25.6C26.0501 25.64 26.0701 25.7 26.1001 25.75C26.1301 25.8 26.1601 25.85 26.1801 25.91C26.2001 25.97 26.1901 26.02 26.2001 26.08C26.2001 26.13 26.2201 26.19 26.2201 26.24C26.2201 26.25 26.2201 26.25 26.2101 26.26C26.2101 26.27 26.2101 26.27 26.2101 26.28C25.9701 27.95 25.2901 30.37 24.5101 31.57C24.2001 32.04 23.8701 32.46 23.5101 32.81C23.5201 32.97 23.5301 33.16 23.5501 33.43C24.2501 33.61 25.4601 33.95 26.7801 34.43C26.4001 32.88 26.2801 30.95 26.5101 29.13C27.2301 23.43 25.9701 20.58 24.7801 19.19C23.8001 18.04 22.7601 17.77 22.5401 17.77C22.3001 17.76 22.0701 17.66 21.9101 17.48C21.4501 16.98 20.0201 16.34 17.9701 16.6C15.8501 16.87 14.1501 17.94 12.9201 19.8C11.2101 22.38 10.6601 26.26 11.5501 29.46C12.2201 31.84 12.4501 33.74 12.5201 34.93Z" fill="white"/>
<path d="M51.4201 21.41C51.4901 21.45 51.5601 21.49 51.6201 21.55C51.9801 21.88 52.6101 22.12 53.4401 22.24C56.4301 22.68 57.9801 21.18 58.0401 21.12C58.2101 20.95 58.4401 20.85 58.6801 20.85C58.7001 20.85 58.7201 20.85 58.7501 20.85C59.5001 20.91 60.2101 21.89 60.7701 23.06C60.7801 22.91 60.7901 22.75 60.8001 22.59L60.8201 22.27C60.9401 19.65 60.9201 18.36 59.0101 17.54C58.9101 17.5 58.8201 17.44 58.7401 17.36C57.1401 15.82 54.9601 15.38 53.0301 16.21C51.1801 17 49.9601 18.74 49.6401 20.98C49.7701 20.91 49.9201 20.86 50.0701 20.85C50.5401 20.81 50.9101 21.06 51.1401 21.22C51.2201 21.28 51.3101 21.35 51.4201 21.41Z" fill="white"/>
<path d="M43.1901 41.91C43.1801 41.91 43.1701 41.91 43.1701 41.91C43.1601 41.91 43.1501 41.92 43.1301 41.92C43.1001 41.92 43.0701 41.9 43.0401 41.9C42.9501 41.89 42.8601 41.88 42.7801 41.84C42.7401 41.82 42.7101 41.8 42.6701 41.78C42.5901 41.73 42.5301 41.68 42.4701 41.61C42.4501 41.59 42.4301 41.58 42.4101 41.56C42.1801 41.24 41.9201 40.69 41.7301 40.08C40.6801 40.86 38.8501 40.97 38.0501 40.97H37.8901C37.1401 40.97 35.3101 40.86 34.2601 40.09C34.0401 40.79 33.7901 41.33 33.7501 41.42C33.7501 41.43 33.7401 41.43 33.7401 41.44C33.7301 41.46 33.7201 41.47 33.7101 41.49C33.6701 41.56 33.6101 41.63 33.5501 41.69C33.5301 41.71 33.5101 41.73 33.4801 41.75C33.4001 41.81 33.3201 41.85 33.2301 41.88C33.2201 41.88 33.2101 41.89 33.2001 41.9C33.1601 41.91 29.6001 43 28.0801 43.62L31.6801 54.95C31.9901 54.04 32.7701 53.06 34.2801 52.42C34.2801 52.42 34.2801 52.42 34.2901 52.42C35.4001 51.95 36.7901 51.71 38.4201 51.71C40.2401 51.71 43.4501 51.73 44.8101 51.73C44.9701 50.92 45.1401 49.13 45.2201 47.62C45.2501 47.12 45.6801 46.75 46.1601 46.77C46.6601 46.8 47.0401 47.22 47.0101 47.71C46.9001 49.81 46.6701 52.45 46.1701 53.15C46.0001 53.39 45.7301 53.53 45.4401 53.53C45.4401 53.53 40.7801 53.5 38.4301 53.5C37.0401 53.5 35.8901 53.69 35.0101 54.06C33.6501 54.64 33.4101 55.43 33.3601 55.73H46.4601C50.1801 55.73 50.3701 54.75 50.5801 53.71C50.9301 51.95 51.6001 46.94 50.5301 44.93C48.7201 41.56 43.2501 41.91 43.1901 41.91Z" fill="white"/>
<path d="M60.0901 35.24C59.6201 35.01 59.3601 34.79 59.2101 34.61C59.0201 34.41 58.7501 34.13 58.5401 33.75C57.3001 34.51 54.5801 34.53 54.4601 34.53C54.4501 34.53 54.4101 34.53 54.3801 34.53C54.3701 34.53 54.3601 34.53 54.3501 34.53C53.1601 34.52 52.4101 34.3 51.7501 33.77C51.5901 34.07 51.4101 34.3 51.3001 34.44C51.2501 34.52 51.1801 34.59 51.1101 34.65C51.0701 34.69 51.0201 34.72 50.9701 34.75C50.9601 34.75 50.9501 34.76 50.9501 34.76C50.8001 34.85 50.6401 34.91 50.4701 34.91C50.3101 34.9 46.7101 34.88 44.8401 40.14C46.9901 40.31 50.5001 41.07 52.1001 44.08C53.6601 47.01 52.4601 53.34 52.3201 54.05C52.2001 54.68 52.0001 55.24 51.6801 55.72H64.4101V41.27C64.4101 38.58 63.0301 36.66 60.0901 35.24ZM60.7801 52.71C60.7801 53.21 60.3801 53.61 59.8801 53.61C59.3801 53.61 58.9801 53.21 58.9801 52.71V45.22C58.9801 44.72 59.3801 44.32 59.8801 44.32C60.3801 44.32 60.7801 44.72 60.7801 45.22V52.71Z" fill="white"/>
<path d="M7.18994 39.19L12.4399 55.72H30.0499L24.7999 39.19H7.18994Z" fill="#16A7A7"/>
<path d="M66.21 55.88V41.27C66.21 37.91 64.42 35.33 60.88 33.62C60.71 33.54 60.63 33.48 60.6 33.45C60.59 33.43 60.57 33.43 60.56 33.41C60.55 33.4 60.54 33.38 60.53 33.37C60.15 32.99 59.96 32.77 60.11 32.26C60.14 32.16 60.14 32.06 60.14 31.96C60.83 30.9 61.51 29.39 61.94 27.15C62.03 26.85 62.5 25.17 62.62 22.68L62.63 22.37C62.75 19.89 62.87 17.33 59.88 15.97C57.75 14 54.88 13.46 52.32 14.56C49.48 15.78 47.72 18.75 47.75 22.31C47.75 25.09 48.29 26.85 48.4 27.17C48.84 29.45 49.54 30.97 50.24 32.03C50.24 32.1 50.24 32.18 50.26 32.25C50.36 32.58 50.23 32.86 50.04 33.12C48.74 33.24 45.28 34.05 43.31 39.06C43.27 38.88 43.24 38.69 43.23 38.52C43.22 38.44 43.2 38.38 43.17 38.31C43.89 37.19 44.72 35.48 45.25 33.04C45.3 32.89 45.86 31.02 46 28.15L46.02 27.81C46.15 25.14 46.28 22.39 43.07 20.92C40.79 18.81 37.69 18.23 34.94 19.41C31.88 20.72 29.99 23.92 30.02 27.76C30.02 30.88 30.65 32.81 30.73 33.05C31.26 35.46 32.08 37.16 32.79 38.28C32.79 38.29 32.78 38.3 32.78 38.31C32.76 38.95 32.5 39.75 32.28 40.27C31.32 40.57 28.87 41.34 27.54 41.87L26.32 38.02C26.2 37.65 25.86 37.39 25.46 37.39H12.17C12.23 37.36 12.3 37.33 12.35 37.28C13.94 35.92 16.15 35.02 16.24 34.99C16.54 34.89 16.78 34.64 16.84 34.3C16.87 34.16 16.88 34.04 16.9 33.92C17.64 34.25 18.47 34.44 19.38 34.44C20.26 34.44 21.05 34.28 21.77 33.97C21.78 34.06 21.79 34.15 21.8 34.25C21.84 34.64 22.13 34.93 22.49 35.02C22.5 35.02 22.5 35.03 22.51 35.03C22.54 35.04 25.47 35.73 27.96 36.84C27.99 36.85 28.01 36.85 28.04 36.86C28.11 36.88 28.17 36.9 28.24 36.9C28.27 36.9 28.3 36.92 28.33 36.92C28.36 36.92 28.39 36.91 28.42 36.91C28.45 36.91 28.48 36.9 28.51 36.9C28.61 36.88 28.71 36.84 28.8 36.79C28.89 36.73 28.96 36.66 29.03 36.57C29.05 36.54 29.06 36.52 29.08 36.49C29.1 36.46 29.12 36.43 29.14 36.4C29.15 36.37 29.15 36.34 29.16 36.32C29.18 36.26 29.19 36.21 29.2 36.14C29.21 36.08 29.21 36.03 29.21 35.97C29.21 35.91 29.2 35.86 29.18 35.81C29.16 35.75 29.14 35.69 29.11 35.64C29.1 35.61 29.1 35.59 29.08 35.56C28.44 34.54 27.93 32.03 28.27 29.37C29.07 23.02 27.54 19.7 26.12 18.04C24.99 16.71 23.72 16.18 22.94 16.03C21.96 15.19 20.06 14.54 17.71 14.83C15.09 15.16 12.9 16.54 11.38 18.82C9.36 21.86 8.74 26.23 9.78 29.96C10.84 33.73 10.71 36.19 10.71 36.21C10.7 36.41 10.76 36.58 10.86 36.74C10.88 36.91 10.93 37.08 11.05 37.21C11.13 37.3 11.22 37.36 11.32 37.42H5.92C5.63 37.42 5.36 37.56 5.19 37.79C5.02 38.02 4.97 38.32 5.06 38.59L10.5 55.75H5.9C5.4 55.75 5 56.15 5 56.65C5 57.15 5.4 57.55 5.9 57.55H11.78H31.28H64.83C64.97 57.64 65.13 57.71 65.31 57.71C65.51 57.71 65.68 57.63 65.82 57.53C66.27 57.48 66.62 57.11 66.62 56.65C66.62 56.31 66.45 56.04 66.21 55.88ZM49.63 20.99C49.96 18.75 51.17 17.01 53.02 16.22C54.95 15.39 57.14 15.83 58.73 17.37C58.81 17.45 58.9 17.51 59 17.55C60.91 18.37 60.93 19.67 60.81 22.28L60.8 22.59C60.79 22.75 60.78 22.91 60.77 23.06C60.21 21.89 59.5 20.91 58.75 20.85C58.73 20.85 58.71 20.85 58.68 20.85C58.44 20.85 58.21 20.95 58.04 21.12C57.98 21.18 56.42 22.68 53.44 22.24C52.61 22.12 51.98 21.88 51.62 21.55C51.56 21.5 51.49 21.45 51.42 21.41C51.3 21.35 51.21 21.28 51.13 21.23C50.9 21.07 50.54 20.82 50.06 20.86C49.91 20.87 49.77 20.92 49.63 20.99ZM50.16 26.83C50.11 25.78 50.23 23.86 50.45 22.93C50.47 22.94 50.48 22.95 50.5 22.96C51.14 23.5 52.04 23.86 53.19 24.03C55.9 24.43 57.74 23.55 58.66 22.93C59.26 23.86 60.16 26.16 60.15 26.86C59.55 29.99 58.41 31.42 57.62 32.22C57.32 32.45 55.84 32.73 54.37 32.73C53.28 32.73 53 32.53 52.71 32.23C51.9 31.42 50.76 29.98 50.16 26.83ZM35.65 21.07C37.77 20.16 40.18 20.64 41.94 22.33C42.02 22.41 42.11 22.47 42.21 22.51C44.33 23.42 44.36 24.85 44.22 27.73L44.2 28.08C44.19 28.24 44.18 28.39 44.17 28.55C44 28.53 43.83 28.51 43.66 28.5C42.97 28.46 42.25 28.41 41.41 27.57C41.14 27.31 40.74 27.23 40.4 27.39C40.38 27.4 37.81 28.55 35.33 28.18C34.89 28.12 34.12 27.78 33.6 27.56C32.97 27.29 32.71 27.18 32.4 27.2C32.18 27.22 31.98 27.32 31.83 27.48C31.9 24.45 33.31 22.07 35.65 21.07ZM32.46 32.6C32.46 32.58 32.44 32.57 32.44 32.55C32.43 32.53 32.44 32.51 32.43 32.49C32.43 32.48 32.22 31.86 32.05 30.79C32.3 30.49 32.57 30 32.94 29.21C33.6 29.5 34.42 29.84 35.07 29.94C37.35 30.27 39.58 29.61 40.59 29.23C41.76 30.17 42.86 30.24 43.55 30.28C43.66 30.29 43.8 30.3 43.91 30.31C43.92 30.41 43.92 30.6 43.89 30.89C43.71 31.9 43.53 32.5 43.53 32.51C43.53 32.52 43.53 32.54 43.53 32.55C43.53 32.56 43.52 32.57 43.51 32.59C42.68 36.44 41.02 38.26 40.7 38.58C40.49 38.79 39.57 39.14 37.94 39.14C36.4 39.13 35.49 38.79 35.27 38.58C34.95 38.27 33.29 36.45 32.46 32.6ZM19.39 32.64C16.31 32.64 14.55 29.63 14.22 26.35C18.03 26.82 20.76 24.85 22.15 23.64C22.59 24.73 23.31 26.08 24.3 26.7C24 28.21 23.45 29.87 22.99 30.59C22.07 32 20.96 32.64 19.39 32.64ZM12.91 19.78C14.14 17.92 15.84 16.85 17.96 16.58C20.01 16.32 21.44 16.97 21.9 17.46C22.06 17.64 22.29 17.74 22.53 17.75C22.75 17.76 23.79 18.02 24.77 19.17C25.96 20.56 27.22 23.41 26.5 29.11C26.27 30.93 26.39 32.86 26.77 34.41C25.45 33.94 24.24 33.6 23.54 33.41C23.52 33.14 23.51 32.95 23.5 32.79C23.86 32.43 24.19 32.02 24.5 31.55C25.28 30.35 25.96 27.93 26.2 26.26C26.2 26.25 26.2 26.25 26.2 26.24C26.2 26.23 26.21 26.23 26.21 26.22C26.22 26.16 26.2 26.11 26.19 26.06C26.19 26 26.19 25.94 26.17 25.89C26.15 25.83 26.12 25.78 26.09 25.73C26.06 25.68 26.05 25.63 26.01 25.58C25.97 25.53 25.93 25.5 25.88 25.46C25.84 25.42 25.8 25.38 25.75 25.35C25.7 25.32 25.64 25.31 25.58 25.29C25.53 25.27 25.49 25.25 25.43 25.24C25.42 25.24 25.42 25.24 25.41 25.24C25.4 25.24 25.4 25.23 25.39 25.23C24.88 25.18 23.92 23.52 23.42 21.81C23.34 21.53 23.13 21.31 22.86 21.22C22.59 21.12 22.29 21.16 22.05 21.33C21.91 21.43 21.71 21.6 21.45 21.83C20.18 22.98 17.53 25.37 13.47 24.37C13.43 24.36 13.39 24.37 13.35 24.37C13.31 24.37 13.28 24.35 13.24 24.35C13.22 24.35 13.2 24.36 13.17 24.36C13.12 24.37 13.07 24.38 13.02 24.39C12.95 24.41 12.88 24.43 12.82 24.46C12.79 24.48 12.77 24.5 12.74 24.52C12.67 24.57 12.61 24.62 12.55 24.69C12.53 24.71 12.52 24.73 12.51 24.75C12.46 24.83 12.42 24.91 12.39 25C12.39 25.01 12.38 25.02 12.38 25.03C12.38 25.05 12.38 25.06 12.38 25.08C12.37 25.14 12.35 25.19 12.35 25.25C12.36 28.05 13.29 30.87 15.06 32.63C15.07 32.67 15.07 32.7 15.08 32.74C15.08 32.74 15.17 32.99 15.13 33.49C14.56 33.74 13.54 34.23 12.51 34.91C12.44 33.73 12.21 31.83 11.54 29.43C10.65 26.24 11.2 22.36 12.91 19.78ZM12.43 55.72L7.19 39.19H24.8L30.05 55.72H12.43ZM50.55 53.69C50.34 54.73 50.15 55.71 46.43 55.71H33.33C33.37 55.41 33.62 54.62 34.98 54.04C35.86 53.66 37.02 53.48 38.4 53.48C40.76 53.48 45.41 53.51 45.41 53.51C45.7 53.51 45.97 53.37 46.14 53.13C46.64 52.43 46.87 49.79 46.98 47.69C47.01 47.19 46.62 46.77 46.13 46.75C45.65 46.73 45.21 47.11 45.19 47.6C45.11 49.11 44.94 50.9 44.78 51.71C43.42 51.7 40.22 51.69 38.39 51.69C36.76 51.69 35.37 51.93 34.26 52.4C34.26 52.4 34.26 52.4 34.25 52.4C32.75 53.04 31.96 54.02 31.65 54.93L28.05 43.6C29.56 42.98 33.13 41.89 33.17 41.88C33.18 41.88 33.19 41.87 33.2 41.86C33.29 41.83 33.37 41.78 33.45 41.73C33.47 41.71 33.5 41.69 33.52 41.67C33.58 41.61 33.63 41.55 33.68 41.47C33.69 41.45 33.71 41.44 33.71 41.42C33.71 41.41 33.72 41.41 33.72 41.4C33.77 41.3 34.02 40.76 34.23 40.07C35.28 40.85 37.11 40.95 37.86 40.95H38.02C38.81 40.95 40.65 40.84 41.7 40.06C41.89 40.67 42.15 41.22 42.38 41.54C42.4 41.56 42.42 41.57 42.44 41.59C42.5 41.66 42.57 41.71 42.64 41.76C42.68 41.78 42.71 41.81 42.75 41.82C42.83 41.86 42.92 41.87 43.01 41.88C43.04 41.88 43.07 41.9 43.1 41.9C43.11 41.9 43.12 41.89 43.14 41.89C43.15 41.89 43.16 41.89 43.16 41.89C43.21 41.89 48.69 41.55 50.48 44.9C51.57 46.92 50.9 51.93 50.55 53.69ZM64.41 55.72H51.68C52 55.24 52.2 54.68 52.32 54.05C52.46 53.34 53.65 47.01 52.1 44.08C50.5 41.07 46.99 40.32 44.84 40.14C46.71 34.88 50.31 34.9 50.47 34.91C50.64 34.91 50.8 34.85 50.95 34.76C50.96 34.76 50.97 34.75 50.97 34.75C51.02 34.72 51.07 34.69 51.11 34.65C51.18 34.59 51.25 34.52 51.3 34.44C51.41 34.3 51.59 34.07 51.75 33.77C52.41 34.3 53.16 34.52 54.35 34.53C54.35 34.53 54.36 34.53 54.38 34.53C54.41 34.53 54.45 34.53 54.46 34.53C54.59 34.53 57.3 34.51 58.54 33.75C58.75 34.13 59.01 34.42 59.21 34.61C59.36 34.79 59.62 35.01 60.09 35.24C63.04 36.67 64.41 38.58 64.41 41.27V55.72Z" fill="#481D72"/>
<path d="M59.88 44.32C59.38 44.32 58.98 44.72 58.98 45.22V52.71C58.98 53.21 59.38 53.61 59.88 53.61C60.38 53.61 60.78 53.21 60.78 52.71V45.22C60.78 44.72 60.38 44.32 59.88 44.32Z" fill="#481D72"/>
</svg>
