<svg viewBox="0 0 72 72" fill="none" xmlns="http://www.w3.org/2000/svg">
<path d="M24.66 15.45C24.63 15.44 24.6 15.43 24.57 15.42C24.19 15.28 23.78 15.33 23.46 15.55C23.17 15.75 23 16.06 23 16.4V55.31C23 55.65 23.17 55.96 23.46 56.16C23.79 56.38 24.2 56.43 24.57 56.29C24.62 56.27 24.68 56.25 24.73 56.25L37.45 53.99C37.49 53.98 37.53 53.99 37.57 53.99V18.75C37.51 18.75 37.45 18.76 37.38 18.74L24.66 15.45ZM25.74 31.94V30.31C25.74 28.93 26.43 27.67 27.53 27.03C27.86 26.84 28.22 26.72 28.58 26.65C28.17 25.92 27.93 25.05 27.97 24.13C28.02 22.94 28.54 21.92 29.38 21.36C30.1 20.87 31.01 20.77 31.87 21.07C32.34 21.24 32.58 21.75 32.42 22.22C32.26 22.69 31.74 22.93 31.27 22.77C30.95 22.65 30.64 22.68 30.39 22.86C30.03 23.11 29.8 23.6 29.77 24.22C29.71 25.56 30.6 26.67 31.43 26.78C31.44 26.78 31.44 26.78 31.45 26.79C31.53 26.8 31.61 26.81 31.7 26.82C32.19 26.88 32.54 27.33 32.48 27.82C32.42 28.31 31.97 28.66 31.48 28.6C29.91 28.4 29.21 28.41 29.21 28.41C28.92 28.41 28.67 28.47 28.44 28.6C27.89 28.92 27.55 29.58 27.55 30.32V31.95C27.55 32.45 27.15 32.85 26.65 32.85C26.15 32.84 25.75 32.44 25.74 31.94ZM27.06 37.13L33.56 36.68C34.05 36.63 34.49 37.02 34.52 37.52C34.55 38.02 34.18 38.44 33.68 38.48L27.18 38.93C27.16 38.93 27.14 38.93 27.12 38.93C26.65 38.93 26.26 38.57 26.22 38.09C26.19 37.6 26.56 37.17 27.06 37.13ZM33.88 45.48L27.31 46.89C27.25 46.9 27.18 46.91 27.12 46.91C26.7 46.91 26.33 46.62 26.24 46.2C26.14 45.71 26.45 45.24 26.93 45.13L33.5 43.72C33.99 43.62 34.46 43.93 34.57 44.41C34.68 44.89 34.37 45.37 33.88 45.48Z" fill="white"/>
<path d="M63.2199 18.36L40.9399 9.87999C40.7999 9.82999 40.6499 9.79999 40.4999 9.79999C40.2599 9.79999 40.0199 9.86999 39.8199 10.01C39.5299 10.21 39.3599 10.52 39.3599 10.86V60.86C39.3599 61.2 39.5299 61.51 39.8199 61.71C40.1499 61.93 40.5599 61.98 40.9299 61.84L63.2099 53.36C63.6399 53.2 63.9199 52.81 63.9199 52.38V19.34C63.9299 18.91 63.6499 18.53 63.2199 18.36ZM43.7599 31.88C43.2599 31.88 42.8599 31.48 42.8599 30.98V28.95C42.8599 27.3 43.7199 25.8 45.0999 25.05C45.6199 24.77 46.1899 24.61 46.7799 24.57C46.1399 23.64 45.7599 22.48 45.8099 21.27C45.8799 19.9 46.4799 18.72 47.4699 18.04C48.3599 17.43 49.4799 17.29 50.5599 17.65C52.5299 18.31 53.9399 20.5 53.8299 22.76C53.7899 23.68 53.4799 24.54 52.9699 25.21C53.0999 25.24 53.1699 25.26 53.1899 25.26C53.6799 25.36 54.1799 25.63 54.6099 26.03C55.4199 26.78 55.8999 27.95 55.9099 29.16L55.9199 31.22C55.9199 31.72 55.6099 31.87 54.6099 31.87C54.5999 31.87 44.2599 31.88 43.7599 31.88ZM60.4499 46.04L44.9199 49.38C44.8599 49.39 44.7899 49.4 44.7299 49.4C44.3099 49.4 43.9399 49.11 43.8499 48.69C43.7499 48.2 44.0599 47.73 44.5399 47.62L60.0699 44.28C60.5599 44.18 61.0299 44.49 61.1399 44.97C61.2399 45.46 60.9399 45.94 60.4499 46.04ZM60.3199 38.39L44.7899 39.46C44.7699 39.46 44.7499 39.46 44.7299 39.46C44.2599 39.46 43.8699 39.1 43.8299 38.62C43.7999 38.12 44.1699 37.7 44.6699 37.66L60.1999 36.6C60.6899 36.56 61.1299 36.94 61.1599 37.44C61.1899 37.93 60.8199 38.36 60.3199 38.39Z" fill="white"/>
<path d="M10.37 19.92C10 19.78 9.58005 19.83 9.26005 20.05C8.97005 20.25 8.80005 20.56 8.80005 20.9V50.79C8.80005 51.13 8.97005 51.44 9.26005 51.64C9.58005 51.86 10 51.91 10.37 51.77C10.4 51.76 10.44 51.75 10.47 51.74L21.19 49.05V22.69L10.47 19.95C10.44 19.94 10.41 19.93 10.37 19.92ZM17.43 43.55L12.3 44.65C12.24 44.66 12.17 44.67 12.11 44.67C11.69 44.67 11.32 44.38 11.23 43.96C11.13 43.48 11.44 43 11.92 42.9L17.05 41.8C17.54 41.7 18.01 42.01 18.12 42.49C18.23 42.97 17.92 43.45 17.43 43.55ZM18.14 37.29C18.17 37.79 17.8 38.21 17.3 38.25L12.17 38.6C12.15 38.6 12.13 38.6 12.11 38.6C11.64 38.6 11.25 38.24 11.21 37.76C11.18 37.26 11.55 36.84 12.05 36.8L17.18 36.45C17.67 36.41 18.11 36.79 18.14 37.29ZM12.29 28.71C12.48 28.59 12.69 28.5 12.9 28.44C12.64 27.88 12.5 27.23 12.53 26.56C12.57 25.52 13.01 24.65 13.73 24.17C14.32 23.78 15.06 23.7 15.74 23.96C16.2 24.14 16.44 24.66 16.26 25.12C16.08 25.58 15.56 25.82 15.1 25.64C14.91 25.57 14.79 25.62 14.72 25.67C14.54 25.79 14.35 26.1 14.33 26.63C14.29 27.58 14.85 28.4 15.36 28.47C15.37 28.47 15.37 28.47 15.38 28.48C15.44 28.49 15.5 28.49 15.56 28.5C16.05 28.57 16.4 29.02 16.33 29.51C16.26 30 15.81 30.35 15.32 30.28C14.17 30.12 13.69 30.13 13.68 30.13C13.5 30.13 13.37 30.16 13.25 30.24C12.9 30.45 12.68 30.93 12.68 31.46V32.75C12.68 33.25 12.28 33.65 11.78 33.65C11.28 33.65 10.88 33.25 10.88 32.75V31.46C10.87 30.31 11.42 29.26 12.29 28.71Z" fill="white"/>
<path d="M63.86 16.68L41.58 8.19999C40.65 7.84999 39.62 7.96999 38.8 8.52999C38.01 9.06999 37.56 9.91999 37.56 10.86V16.93L25.16 13.72C24.25 13.39 23.23 13.52 22.44 14.07C21.65 14.61 21.2 15.46 21.2 16.4V20.83L10.96 18.22C10.05 17.89 9.03 18.02 8.24 18.57C7.45 19.11 7 19.96 7 20.9V50.79C7 51.73 7.45 52.58 8.24 53.12C8.75 53.47 9.34 53.65 9.94 53.65C10.28 53.65 10.63 53.59 10.96 53.47L21.19 50.91V55.32C21.19 56.26 21.64 57.11 22.43 57.65C22.94 58 23.53 58.18 24.13 58.18C24.46 58.18 24.8 58.13 25.12 58.01L37.56 55.79V60.86C37.56 61.8 38.01 62.65 38.8 63.19C39.31 63.54 39.9 63.72 40.5 63.72C40.86 63.72 41.23 63.65 41.58 63.52L63.86 55.04C64.99 54.61 65.73 53.56 65.73 52.38V19.34C65.73 18.16 65 17.11 63.86 16.68ZM21.19 49.05L10.48 51.73C10.45 51.74 10.41 51.75 10.38 51.76C10 51.91 9.58 51.86 9.26 51.63C8.97 51.43 8.8 51.12 8.8 50.78V20.9C8.8 20.56 8.97 20.25 9.26 20.05C9.59 19.83 10 19.78 10.38 19.92C10.41 19.93 10.44 19.94 10.48 19.95L21.2 22.69V49.05H21.19ZM37.56 53.99C37.52 53.99 37.48 53.98 37.44 53.99L24.72 56.25C24.67 56.26 24.61 56.27 24.56 56.29C24.19 56.43 23.77 56.38 23.45 56.16C23.16 55.96 22.99 55.65 22.99 55.31V16.4C22.99 16.06 23.16 15.75 23.45 15.55C23.77 15.33 24.19 15.28 24.56 15.42C24.59 15.43 24.62 15.44 24.65 15.45L37.37 18.74C37.43 18.76 37.49 18.75 37.56 18.75V53.99ZM63.93 52.38C63.93 52.81 63.65 53.19 63.22 53.36L40.94 61.84C40.57 61.98 40.15 61.93 39.83 61.71C39.54 61.51 39.37 61.2 39.37 60.86V10.86C39.37 10.52 39.54 10.21 39.83 10.01C40.03 9.86999 40.27 9.79999 40.51 9.79999C40.66 9.79999 40.8 9.82999 40.95 9.87999L63.23 18.36C63.66 18.52 63.94 18.91 63.94 19.34V52.38H63.93Z" fill="#481D72"/>
<path d="M55.9101 31.22L55.9001 29.16C55.9001 27.95 55.4101 26.78 54.6001 26.03C54.1701 25.64 53.6701 25.37 53.1801 25.26C53.1601 25.25 53.0801 25.24 52.9601 25.21C53.4701 24.54 53.7801 23.69 53.8201 22.76C53.9201 20.51 52.5201 18.31 50.5501 17.65C49.4701 17.29 48.3501 17.44 47.4601 18.04C46.4701 18.72 45.8701 19.89 45.8001 21.27C45.7401 22.48 46.1201 23.63 46.7701 24.57C46.1901 24.61 45.6101 24.77 45.0901 25.05C43.7101 25.8 42.8501 27.3 42.8501 28.95V30.98C42.8501 31.48 43.2501 31.88 43.7501 31.88C44.2501 31.88 54.6001 31.87 54.6001 31.87C55.6001 31.87 55.9101 31.72 55.9101 31.22Z" fill="#16A7A7"/>
<path d="M60.1998 36.6L44.6698 37.67C44.1698 37.7 43.7998 38.13 43.8298 38.63C43.8598 39.11 44.2598 39.47 44.7298 39.47C44.7498 39.47 44.7698 39.47 44.7898 39.47L60.3198 38.4C60.8198 38.37 61.1898 37.94 61.1598 37.44C61.1198 36.94 60.6898 36.56 60.1998 36.6Z" fill="#481D72"/>
<path d="M60.07 44.28L44.54 47.62C44.05 47.72 43.75 48.2 43.85 48.69C43.94 49.11 44.31 49.4 44.73 49.4C44.79 49.4 44.86 49.39 44.92 49.38L60.45 46.04C60.94 45.94 61.24 45.46 61.14 44.97C61.04 44.49 60.56 44.18 60.07 44.28Z" fill="#481D72"/>
<path d="M26.65 32.84C27.15 32.84 27.55 32.44 27.55 31.94V30.31C27.55 29.57 27.89 28.91 28.44 28.59C28.66 28.46 28.91 28.4 29.21 28.4C29.21 28.4 29.9 28.4 31.48 28.59C31.98 28.65 32.42 28.3 32.48 27.81C32.54 27.32 32.19 26.87 31.7 26.81C31.61 26.8 31.54 26.79 31.45 26.78C31.44 26.78 31.44 26.78 31.43 26.77C30.6 26.66 29.71 25.55 29.77 24.21C29.8 23.59 30.02 23.1 30.39 22.85C30.64 22.68 30.95 22.65 31.27 22.76C31.74 22.93 32.25 22.68 32.42 22.21C32.59 21.74 32.34 21.23 31.87 21.06C31.01 20.76 30.11 20.86 29.38 21.35C28.54 21.92 28.02 22.93 27.97 24.12C27.93 25.04 28.17 25.91 28.58 26.64C28.21 26.7 27.86 26.82 27.53 27.02C26.42 27.66 25.74 28.91 25.74 30.3V31.93C25.75 32.44 26.15 32.84 26.65 32.84Z" fill="#481D72"/>
<path d="M27.12 38.93C27.14 38.93 27.16 38.93 27.18 38.93L33.68 38.48C34.18 38.45 34.55 38.02 34.52 37.52C34.49 37.02 34.05 36.64 33.56 36.68L27.06 37.13C26.56 37.16 26.19 37.59 26.22 38.09C26.25 38.57 26.65 38.93 27.12 38.93Z" fill="#481D72"/>
<path d="M33.4999 43.72L26.9299 45.13C26.4399 45.23 26.1399 45.71 26.2399 46.2C26.3299 46.62 26.6999 46.91 27.1199 46.91C27.1799 46.91 27.2499 46.9 27.3099 46.89L33.8799 45.48C34.3699 45.38 34.6699 44.9 34.5699 44.41C34.4699 43.92 33.9899 43.61 33.4999 43.72Z" fill="#481D72"/>
<path d="M11.7801 33.65C12.2801 33.65 12.6801 33.25 12.6801 32.75V31.46C12.6801 30.94 12.9001 30.46 13.2501 30.24C13.3701 30.16 13.5001 30.13 13.6801 30.13C13.6801 30.13 14.1701 30.13 15.3201 30.28C15.8201 30.35 16.2701 30 16.3301 29.51C16.4001 29.02 16.0501 28.56 15.5601 28.5C15.4901 28.49 15.4401 28.48 15.3801 28.48C15.3701 28.48 15.3701 28.48 15.3601 28.47C14.8501 28.4 14.2901 27.58 14.3301 26.63C14.3501 26.1 14.5501 25.79 14.7201 25.67C14.7901 25.62 14.9101 25.57 15.1001 25.64C15.5601 25.82 16.0801 25.58 16.2601 25.12C16.4401 24.66 16.2001 24.13 15.7401 23.96C15.0501 23.7 14.3201 23.77 13.7301 24.17C13.0101 24.64 12.5701 25.52 12.5301 26.56C12.5001 27.23 12.6401 27.88 12.9001 28.44C12.6901 28.5 12.4801 28.59 12.2901 28.71C11.4101 29.25 10.8701 30.31 10.8701 31.46V32.75C10.8801 33.25 11.2801 33.65 11.7801 33.65Z" fill="#481D72"/>
<path d="M11.21 37.77C11.24 38.25 11.64 38.61 12.11 38.61C12.13 38.61 12.15 38.61 12.17 38.61L17.3 38.26C17.8 38.23 18.17 37.8 18.14 37.3C18.11 36.8 17.67 36.42 17.18 36.46L12.05 36.81C11.55 36.84 11.18 37.27 11.21 37.77Z" fill="#481D72"/>
<path d="M17.06 41.79L11.93 42.89C11.44 42.99 11.13 43.47 11.24 43.96C11.33 44.38 11.7 44.67 12.12 44.67C12.18 44.67 12.25 44.66 12.31 44.65L17.44 43.55C17.93 43.45 18.24 42.97 18.13 42.48C18.02 42 17.54 41.69 17.06 41.79Z" fill="#481D72"/>
</svg>
